<svg width="24" height="18" viewBox="0 0 24 18" fill="none" xmlns="http://www.w3.org/2000/svg">
<path d="M23.9995 8.98128C23.9984 8.95507 23.9953 8.93421 23.9934 8.9203L23.9921 8.91094L23.9913 8.90292L23.9897 8.89516C23.9692 8.7847 23.9157 8.68361 23.8366 8.60551L15.5168 0.161273C15.4117 0.0540253 15.2704 -0.000266468 15.1324 9.83317e-07C14.9945 -0.000266468 14.8538 0.0540254 14.7484 0.161006C14.6433 0.268254 14.589 0.410805 14.5893 0.55095C14.589 0.691094 14.6425 0.833379 14.7479 0.940359L22.1464 8.44905H0.540739C0.242964 8.45092 0.00131798 8.69511 0 8.99733C0 9.30195 0.241119 9.55042 0.540739 9.55122H22.1491L14.7482 17.0591C14.643 17.1664 14.5892 17.3089 14.5895 17.4488C14.5892 17.5889 14.6427 17.7315 14.7482 17.8385L14.7492 17.8395C14.8546 17.9457 14.9948 18.0003 15.1326 18C15.2707 18 15.4109 17.946 15.5163 17.8395L15.5171 17.8387L23.8456 9.38781C23.9436 9.28618 23.9992 9.14951 23.9997 9.00696L24 9.00482V9.00267V8.99946V8.99091L23.9995 8.98128Z" fill="white"/>
</svg>