<svg width="24" height="18" viewBox="0 0 24 18" fill="none" xmlns="http://www.w3.org/2000/svg">
<path d="M0.000527213 9.01872C0.00158197 9.04493 0.00474436 9.06579 0.00658876 9.0797L0.00790865 9.08906L0.00869447 9.09708L0.0102814 9.10484C0.030835 9.2153 0.0843285 9.31639 0.163384 9.39449L8.48317 17.8387C8.58831 17.946 8.72956 18.0003 8.86765 18C9.00547 18.0003 9.14618 17.946 9.25159 17.839C9.35673 17.7317 9.41101 17.5892 9.41075 17.449C9.41101 17.3089 9.35752 17.1666 9.25211 17.0596L1.85359 9.55095L23.4593 9.55095C23.757 9.54908 23.9987 9.30489 24 9.00267C24 8.69805 23.7589 8.44958 23.4593 8.44878L1.85095 8.44878L9.25185 0.94089C9.35699 0.833642 9.41075 0.69109 9.41049 0.551213C9.41075 0.411069 9.35725 0.268519 9.25185 0.161538L9.2508 0.160468C9.14539 0.0542895 9.0052 -0.000266432 8.86738 5.84413e-07C8.7293 5.72341e-07 8.5891 0.0540224 8.4837 0.160468L8.4829 0.161273L0.154424 8.61219C0.0563954 8.71382 0.000786628 8.85049 0.000260187 8.99304L7.87226e-07 8.99518L7.87039e-07 8.99732L7.86758e-07 9.00053L7.8601e-07 9.00909L0.000527213 9.01872Z" fill="white"/>
</svg>