<svg width="12" height="15" viewBox="0 0 12 15" fill="none" xmlns="http://www.w3.org/2000/svg">
<path d="M5.92697 0.750296C5.91223 0.750889 5.90049 0.752668 5.89267 0.753706L5.8874 0.754448L5.88289 0.75489L5.87853 0.755783C5.81639 0.767344 5.75953 0.797435 5.7156 0.841903L0.965716 5.52178C0.905389 5.58092 0.87485 5.66038 0.875 5.73805C0.87485 5.81557 0.905389 5.89473 0.965565 5.95402C1.02589 6.01316 1.10608 6.04369 1.18491 6.04355C1.26374 6.04369 1.34378 6.01361 1.40395 5.95431L5.62759 1.79264L5.62759 13.9458C5.62864 14.1133 5.766 14.2493 5.936 14.25C6.10735 14.25 6.24711 14.1144 6.24756 13.9458L6.24756 1.79116L10.4707 5.95416C10.5311 6.01331 10.6113 6.04355 10.6899 6.0434C10.7688 6.04355 10.849 6.01345 10.9091 5.95416L10.9097 5.95357C10.9695 5.89428 11.0002 5.81542 11 5.7379C11 5.66023 10.9696 5.58137 10.9097 5.52208L10.9093 5.52163L6.15564 0.836862C6.09847 0.781722 6.0216 0.750442 5.94141 0.750146L5.94021 0.75L5.939 0.75L5.9372 0.75L5.93238 0.75L5.92697 0.750296Z" fill="black"/>
<path d="M5.92697 0.750296L5.93702 1.00012L5.94062 0.999923L5.92697 0.750296ZM5.89267 0.753706L5.8598 0.505868L5.85776 0.506155L5.89267 0.753706ZM5.8874 0.754448L5.9118 1.00348L5.92231 1.002L5.8874 0.754448ZM5.88289 0.75489L5.85852 0.50608L5.84556 0.507351L5.83279 0.509961L5.88289 0.75489ZM5.87853 0.755783L5.92427 1.0016L5.92863 1.00071L5.87853 0.755783ZM5.7156 0.841903L5.89107 1.02L5.89345 1.0176L5.7156 0.841903ZM0.965716 5.52178L1.14073 5.7003L1.14118 5.69987L0.965716 5.52178ZM0.875 5.73805L1.125 5.73854L1.125 5.73757L0.875 5.73805ZM0.965565 5.95402L0.790103 6.1321L0.790549 6.13254L0.965565 5.95402ZM1.18491 6.04355L1.18538 5.79354L1.18444 5.79355L1.18491 6.04355ZM1.40395 5.95431L1.57941 6.13239L1.57942 6.13239L1.40395 5.95431ZM5.62759 1.79264L5.87759 1.79264L5.87759 1.19534L5.45213 1.61456L5.62759 1.79264ZM5.62759 13.9458L5.37759 13.9458L5.3776 13.9474L5.62759 13.9458ZM5.936 14.25L5.93491 14.5L5.936 14.5L5.936 14.25ZM6.24756 13.9458L6.49756 13.9465L6.49756 13.9458L6.24756 13.9458ZM6.24756 1.79116L6.42306 1.61312L5.99756 1.19368L5.99756 1.79116L6.24756 1.79116ZM10.4707 5.95416L10.2952 6.1322L10.2957 6.13268L10.4707 5.95416ZM10.6899 6.0434L10.6904 5.7934L10.6895 5.7934L10.6899 6.0434ZM10.9091 5.95416L10.7338 5.77596L10.7337 5.77608L10.9091 5.95416ZM10.9097 5.95357L11.0851 6.13177L11.0859 6.13099L10.9097 5.95357ZM11 5.7379L10.75 5.7379L10.75 5.73838L11 5.7379ZM10.9097 5.52208L11.0856 5.34444L11.0852 5.34404L10.9097 5.52208ZM10.9093 5.52163L11.0848 5.34359L11.0848 5.34357L10.9093 5.52163ZM6.15564 0.836862L6.33113 0.65879L6.3292 0.656925L6.15564 0.836862ZM5.94141 0.750146L5.91133 0.998329L5.92586 1.00009L5.94049 1.00014L5.94141 0.750146ZM5.94021 0.75L5.97029 0.501817L5.9553 0.5L5.94021 0.5L5.94021 0.75ZM5.93238 0.75L5.93238 0.499626L5.91873 0.500373L5.93238 0.75ZM5.91692 0.500498C5.88831 0.501649 5.86405 0.505312 5.8598 0.505876L5.92554 1.00154C5.93693 1.00002 5.93615 1.00013 5.93702 1.00009L5.91692 0.500498ZM5.85776 0.506155L5.85249 0.506898L5.92231 1.002L5.92758 1.00126L5.85776 0.506155ZM5.86303 0.505639L5.85852 0.50608L5.90726 1.0037L5.91177 1.00326L5.86303 0.505639ZM5.83279 0.509961L5.82843 0.510854L5.92863 1.00071L5.93299 0.999819L5.83279 0.509961ZM5.83279 0.510002C5.72097 0.530809 5.61787 0.585102 5.53775 0.666209L5.89345 1.0176C5.90119 1.00977 5.91181 1.00388 5.92426 1.00156L5.83279 0.510002ZM5.54014 0.663819L0.790256 5.3437L1.14118 5.69987L5.89106 1.01999L5.54014 0.663819ZM0.790699 5.34326C0.680357 5.45144 0.624725 5.59629 0.625001 5.73853L1.125 5.73757C1.12497 5.72446 1.13042 5.71041 1.14073 5.7003L0.790699 5.34326ZM0.625001 5.73757C0.624724 5.88001 0.680577 6.02419 0.790103 6.1321L1.14103 5.77594C1.1302 5.76527 1.12498 5.75114 1.125 5.73854L0.625001 5.73757ZM0.790549 6.13254C0.899155 6.23901 1.04297 6.29381 1.18538 6.29355L1.18444 5.79355C1.16919 5.79357 1.15263 5.78731 1.14058 5.7755L0.790549 6.13254ZM1.18444 6.29355C1.32602 6.29381 1.4702 6.24 1.57941 6.13239L1.22849 5.77623C1.21735 5.78721 1.20146 5.79358 1.18538 5.79355L1.18444 6.29355ZM1.57942 6.13239L5.80306 1.97072L5.45213 1.61456L1.22849 5.77624L1.57942 6.13239ZM5.37759 1.79264L5.37759 13.9458L5.87759 13.9458L5.87759 1.79264L5.37759 1.79264ZM5.3776 13.9474C5.37953 14.2545 5.63043 14.4987 5.93491 14.5L5.93709 14C5.90156 13.9998 5.87776 13.9722 5.87759 13.9443L5.3776 13.9474ZM5.936 14.5C6.23967 14.5 6.49673 14.2583 6.49756 13.9465L5.99756 13.9452C5.99749 13.9705 5.97503 14 5.936 14L5.936 14.5ZM6.49756 13.9458L6.49756 1.79116L5.99756 1.79116L5.99756 13.9458L6.49756 13.9458ZM6.07206 1.9692L10.2952 6.1322L10.6463 5.77612L6.42306 1.61312L6.07206 1.9692ZM10.2957 6.13268C10.4047 6.23953 10.5487 6.29367 10.6904 6.2934L10.6895 5.7934C10.6738 5.79343 10.6574 5.78708 10.6458 5.77564L10.2957 6.13268ZM10.6895 6.2934C10.8309 6.29366 10.9753 6.23993 11.0846 6.13224L10.7337 5.77608C10.7226 5.78698 10.7066 5.79343 10.6904 5.7934L10.6895 6.2934ZM11.0845 6.13236L11.0851 6.13177L10.7344 5.77537L10.7338 5.77596L11.0845 6.13236ZM11.0859 6.13099C11.194 6.02366 11.2503 5.88032 11.25 5.73741L10.75 5.73838C10.75 5.75053 10.7449 5.7649 10.7336 5.77615L11.0859 6.13099ZM11.25 5.7379C11.25 5.59588 11.1946 5.45233 11.0856 5.34444L10.7338 5.69972C10.7446 5.71041 10.75 5.72458 10.75 5.7379L11.25 5.7379ZM11.0852 5.34404L11.0848 5.34359L10.7338 5.69967L10.7342 5.70012L11.0852 5.34404ZM11.0848 5.34357L6.33112 0.658801L5.98016 1.01492L10.7338 5.69969L11.0848 5.34357ZM6.3292 0.656925C6.22555 0.556953 6.08679 0.500682 5.94234 0.500148L5.94049 1.00014C5.9564 1.0002 5.97139 1.00649 5.98208 1.0168L6.3292 0.656925ZM5.9715 0.501962L5.97029 0.501817L5.91013 0.998183L5.91133 0.998329L5.9715 0.501962ZM5.94021 0.5L5.939 0.5L5.939 1L5.94021 1L5.94021 0.5ZM5.939 0.5L5.9372 0.5L5.9372 1L5.939 1L5.939 0.5ZM5.9372 0.5L5.93238 0.5L5.93238 1L5.9372 1L5.9372 0.5ZM5.91873 0.500373L5.91332 0.500669L5.94062 0.999923L5.94604 0.999627L5.91873 0.500373Z" fill="black"/>
</svg>
