<svg width="375" height="112" viewBox="0 0 375 112" fill="none" xmlns="http://www.w3.org/2000/svg">
<path d="M4.45006 10.5573C5.05186 10.5573 5.72705 11.0784 6.57103 12.1719C16.1043 7.86394 23.2012 5.69892 27.8394 5.69892C30.0778 5.69892 32.0226 6.16859 33.6885 7.06394C35.3398 7.98131 36.1838 9.06015 36.1838 10.3078C36.1838 11.1224 35.7655 13.0012 34.9361 15.9001C34.5912 17.1477 34.2316 18.6008 33.8206 20.2594C33.3876 22.1529 32.9766 24.2005 32.573 26.3581C33.1454 25.6903 33.7765 25.0297 34.437 24.3692C35.4278 23.3564 36.0444 22.6886 36.3012 22.3804L36.6755 21.8813C36.7489 22.0575 36.8076 22.2996 36.8076 22.6299C36.8076 23.7894 35.9049 25.6169 34.0555 28.0974L28.4632 35.6859C27.1275 37.5207 25.5275 39.1352 23.6194 40.5296L20.5077 43.1569C16.8529 46.1366 14.3723 47.6264 13.0366 47.6264C12.7798 47.6264 12.0019 47.3328 10.6736 46.7603L10.2993 53.3361L9.55069 75.5071L9.68272 98.5221C9.68272 100.922 9.26442 102.691 8.43511 103.872C8.26632 103.96 8.10491 103.99 7.93611 103.99L7.81864 104.114H7.68661C6.76925 104.114 5.36748 102.705 3.44468 99.8872C1.39711 96.6727 0.347656 93.5536 0.347656 90.5813C0.347656 89.5025 0.736576 87.154 1.44846 83.5873C1.9475 80.615 2.33652 76.5859 2.57871 71.5147L3.34187 46.8852L3.5841 39.9278L3.94367 10.6894C4.11981 10.594 4.27393 10.5573 4.45006 10.5573ZM15.7741 20.2521C18.4234 18.7476 20.0454 17.8889 20.6325 17.6541C21.1169 17.4853 22.0342 17.3899 23.3699 17.3899H23.4874V17.5073H23.6194H23.7516H24.1258L23.9938 11.6875C23.4947 11.5921 22.9076 11.5407 22.2471 11.5407H22.1297H21.9976H21.8654H21.7481H21.6013L21.4985 11.6875H21.3518H21.2343H21.1021L16.7428 13.669C15.7521 14.1754 13.888 14.4103 11.1506 14.4103H8.54519C9.44789 15.9074 10.1524 17.199 10.6515 18.2779C10.9964 18.9384 11.4808 20.0612 12.156 21.6244V21.7639C13.9834 21.0814 15.2016 20.5823 15.7741 20.2521ZM16.2732 26.0939C15.9283 26.0939 15.5979 26.1453 15.2677 26.2334C14.5925 26.3214 14.1669 26.3581 13.9027 26.3581H13.7706H13.6531H13.3817H13.2789C13.1761 26.2774 13.11 26.2334 13.022 26.2334H12.7652H12.6477H12.3908H12.2735H12.156L11.3927 36.4418C13.477 33.7631 15.0989 30.3285 16.2732 26.0939ZM22.3499 34.064L23.6121 24.4866C18.8785 30.2844 15.2971 35.0988 12.9193 38.9077C16.7355 37.3445 19.8693 35.7152 22.3499 34.064ZM18.1226 93.6563C21.205 92.005 23.6121 90.141 25.3441 88.0568C27.1641 85.8991 29.6594 81.914 32.8152 76.1089C29.2484 77.8556 26.6652 78.7142 25.0873 78.7142C23.1939 78.7142 21.2489 76.762 19.2527 72.8577C19.8252 72.9604 20.4564 72.9972 21.1169 72.9972C25.6744 72.9972 30.6502 70.9716 36.0369 66.9059C36.3819 66.5756 36.925 66.1572 37.6589 65.6655L37.2846 63.4272C34.0481 62.752 31.6483 61.13 30.0777 58.5614L30.452 58.0624C37.6588 55.2589 43.0971 49.9382 46.7665 42.1515C44.1832 43.1496 41.71 45.2559 39.2954 48.485C37.0424 51.56 35.2223 53.0939 33.8206 53.0939C32.9032 53.0939 31.9858 52.4334 31.0831 51.1051C30.2391 49.8648 29.8355 48.5217 29.8355 47.1126C29.8355 44.4559 30.3493 42.313 31.4428 40.647C31.685 40.2361 31.9418 40.0306 32.1913 40.0306C32.5363 40.0306 32.7344 40.148 32.8225 40.3975L33.6958 42.3938C34.1288 43.2084 34.9435 43.634 36.1912 43.634C38.2534 43.634 40.4917 42.9221 42.8989 41.513C47.038 39.1939 50.2966 38.0271 52.601 38.0271C53.6725 38.0271 54.7073 38.4013 55.7127 39.1572C57.2025 40.1406 57.9511 41.0213 57.9511 41.7699C57.9511 42.0928 57.5915 42.7167 56.8209 43.6267L55.2137 45.4908C53.7239 47.3989 51.0745 50.0189 47.2583 53.3141C48.7481 53.16 49.7828 53.0792 50.3553 53.0792C53.511 53.0792 55.0962 53.9599 55.0962 55.6845C55.0962 56.6826 52.4322 58.8917 47.1261 62.2823H46.9941V62.407H46.862V62.5318H46.7592L46.6418 62.6565H46.495V62.774H46.3628L46.2308 62.9208C46.7445 63.5813 47.0161 64.3666 47.1042 65.2766C51.9919 63.7868 55.4926 63.0382 57.5695 63.0382C59.551 63.0382 61.3124 63.5372 62.7875 64.528C64.1892 65.4454 64.8938 66.561 64.8938 67.8893C64.8938 68.8067 64.1892 69.2543 62.7875 69.2543L53.9734 69.746C53.2982 69.8414 52.3368 70.0029 51.0892 70.2451C49.5994 70.6708 47.6031 71.1992 45.1152 71.8744C44.3667 73.7751 43.5374 75.5878 42.6494 77.3418C49.4306 77.5914 54.7293 79.1325 58.5602 81.936C62.7875 85.0991 64.8938 88.6365 64.8938 92.5261C64.8938 95.1021 63.859 96.3644 61.7821 96.3644C60.6372 96.3644 59.4997 96.0415 58.4135 95.3737L53.1954 92.0124C52.3955 91.4326 50.2966 90.8161 46.972 90.1483L46.8399 89.6419L47.0968 89.4071L52.8139 88.9081C48.9169 84.9304 44.9758 81.98 41.0054 80.0866C37.9378 85.3926 34.738 89.0255 31.4135 91.029C28.177 93.0179 23.7442 94.0966 18.1005 94.2434V93.6563H18.1226ZM59.8078 6.44014H59.9546H60.0721L71.6236 3.07889C74.1335 2.32298 76.7828 1.9707 79.6083 1.9707C82.6907 1.9707 85.4575 2.70465 87.9381 4.21648C90.3453 5.61088 91.5489 7.27678 91.5489 9.18491C91.5489 9.4271 91.1746 11.7976 90.4187 16.2817C90.3453 16.7734 90.2205 17.5587 90.0591 18.6448C89.8022 19.731 89.6407 20.5163 89.56 21.0153V21.1327V21.2575V21.4997C89.4719 21.8373 89.4426 22.1162 89.4426 22.3804C89.4426 22.9528 89.3839 23.5399 89.3105 24.1124C89.2224 24.8536 89.1637 25.6095 89.1637 26.3581L88.3051 43.7661V46.0118V51.6188C88.3932 53.2627 88.4885 54.9286 88.5472 56.5872C88.5472 58.2458 88.5913 59.8825 88.6793 61.4457C88.8481 65.1812 88.9949 68.5058 89.1637 71.3973C89.2517 72.4761 89.3105 73.5036 89.3105 74.509C89.5527 77.6501 89.6847 79.6902 89.6847 80.6076C89.8388 81.8626 90.015 83.1764 90.1692 84.5928C90.5875 88.1375 90.9544 91.4986 91.2993 94.6691C91.5415 97.8982 91.659 100.349 91.659 102.001C91.659 107.454 90.2939 110.213 87.5565 110.213C85.7511 110.213 82.5366 107.997 77.9791 103.623C73.906 99.8064 69.7668 96.6653 65.5543 94.1701L65.4075 93.4142C68.3137 93.994 70.9264 94.2729 73.2455 94.2729H74.9775C77.5608 94.2729 78.8452 93.3335 78.8452 91.4253L79.3442 70.5165L79.4616 34.5704C74.9775 35.7226 71.7483 36.684 69.7595 37.4253C67.8513 38.0931 65.2461 39.2086 61.9215 40.7865C62.0903 40.1993 62.3398 39.7443 62.67 39.4214C63.0003 39.2526 64.1599 38.5922 66.1561 37.4253L66.2735 37.2857C67.1909 36.6473 67.9101 36.0308 68.4092 35.4363H66.4056C65.0552 35.4363 63.6828 35.1795 62.1783 34.6804C61.6939 37.5867 60.6885 39.0471 59.2134 39.0471C58.2814 39.0471 57.1218 38.1738 55.7127 36.4418C53.4596 33.4402 52.4322 30.9449 52.601 28.9707V25.8517C52.8432 19.6283 53.6065 14.6671 54.8541 10.9316L57.2025 3.46053L58.1932 5.08245C58.362 5.40536 58.4795 5.90439 58.5823 6.55755C58.9712 6.55755 59.3895 6.51353 59.8078 6.44014ZM73.7372 13.9112C76.1591 13.9112 77.3479 14.6671 77.3479 16.1643C77.3479 16.9716 76.2838 18.5568 74.1262 20.8759C72.6364 22.3804 70.5155 24.949 67.7927 28.6038C70.0971 27.9213 72.0199 27.5984 73.495 27.5984C74.5959 27.5984 76.4894 28.0167 79.2121 28.8313C79.1387 26.9379 79.058 25.0004 78.9552 22.9969V20.5163C78.8818 19.8484 78.8524 19.1366 78.8524 18.3953C78.7644 17.8156 78.7204 17.2284 78.7204 16.6413C78.6177 15.6579 78.5883 14.5937 78.5883 13.4269C78.8451 8.94275 77.9718 6.70436 75.9683 6.70436H75.4838L69.8916 9.19225C69.0623 9.60323 67.7266 9.83078 65.9066 9.83078C64.2406 9.83078 62.2958 9.69133 60.0574 9.43447C60.8721 12.0985 61.5032 14.9607 61.9215 18.0284C67.6606 15.2689 71.5869 13.9112 73.7372 13.9112ZM67.9028 22.2336C66.6552 22.5785 65.6644 22.7326 64.9085 22.7326C64.5929 22.7326 63.8736 22.6152 62.8022 22.3731C62.56 22.3731 62.3031 22.3363 62.0535 22.2262L62.5527 29.3304C64.4534 27.4369 66.2442 25.0811 67.9028 22.2336Z" fill="black"/>
<path d="M121.774 50.4482C123.036 50.1179 124.284 49.773 125.532 49.4354C129.26 48.54 131.498 47.9529 132.239 47.718L142.433 44.21C143.182 43.9678 144.18 43.6816 145.428 43.3587C146.829 42.845 148.209 42.3973 149.53 41.979C150.602 41.656 151.68 41.3258 152.767 40.9955C156.906 38.17 159.658 36.1445 160.993 34.8969C162.381 33.6493 163.518 32.1301 164.347 30.288C159.445 32.3649 156.164 34.0676 154.513 35.3739L149.024 39.7479L145.927 42.1184C144.525 43.2706 143.475 43.8504 142.815 43.8504C140.907 43.8504 139.865 41.2377 139.688 36.0197C143.585 32.93 146.411 30.6549 148.158 29.1651C149.89 27.5872 152.069 25.481 154.623 22.8169C152.803 23.0811 151.255 23.1986 150.036 23.1986C149.361 23.1986 148.906 23.1472 148.657 23.0812L144.43 22.4353C142.521 22.1124 141.391 21.4519 141.061 20.4611L142.066 19.83L164.34 12.4837C165.83 11.9993 167.349 11.7351 168.942 11.7351C172.325 11.7351 174.042 12.6158 174.042 14.3698C174.042 15.3532 171.965 17.166 167.804 19.8227C166.571 20.8134 165.412 21.8115 164.333 22.8023C163.914 23.1325 163.129 23.7563 161.97 24.6737C161.221 25.3415 160.436 25.9947 159.606 26.6626C159.922 26.5818 160.223 26.5378 160.465 26.5378C163.386 26.0387 165.279 25.6644 166.197 25.4076C168.501 24.9892 170.197 24.7984 171.297 24.7984C172.699 24.7984 174.079 25.2095 175.385 26.0388C176.736 26.9488 177.389 27.8294 177.389 28.6367C177.389 29.5541 175.04 32.0053 170.307 36.0051C170.864 35.9097 171.628 35.8069 172.545 35.616C172.773 35.5427 172.993 35.506 173.162 35.506C173.316 35.4032 173.492 35.3519 173.661 35.3519C174.651 35.117 175.268 34.9849 175.51 34.9849C176.273 34.9849 177.932 35.4473 180.5 36.3647C181.836 36.7903 182.878 37.37 183.612 38.0966L184.486 39.8433L177.147 41.5826L171.297 42.4486C167.239 43.2779 164.59 43.8651 163.327 44.1807C162.08 44.5183 160.216 45.1567 157.72 46.0447C156.069 47.3878 154.983 48.6647 154.499 49.9123C154 51.1599 153.713 53.2369 153.625 56.1284C157.94 53.9708 161.052 52.5324 162.953 51.7838C164.788 51.1233 166.505 50.7784 168.186 50.7784C170.248 50.7784 172.244 51.659 174.152 53.3837C175.224 54.3011 175.804 57.6549 175.884 63.4674L176.141 81.8808L176.758 97.8138V99.6778C176.758 107.89 175.07 112 171.657 112C169.507 112 166.799 109.255 163.445 103.78C162.3 101.968 161.126 100.214 159.973 98.5624C158.557 96.6542 156.605 94.0342 154.11 90.7243L155.24 90.9665C159.21 92.9627 162.292 94.7901 164.443 96.4414C165.103 97.1092 165.434 97.3587 165.434 97.1973C166.021 96.8597 166.505 95.2084 166.923 92.2067V84.4935V84.3761V84.244V84.0018V83.5101V82.38C166.923 81.3085 166.967 80.2369 167.07 79.1581C159.672 86.042 155.188 89.4693 153.625 89.4693C153.207 89.4693 152.554 89.3226 151.636 88.9924V91.8472V91.9793V92.2141V92.5958V93.4617C151.636 94.203 151.666 94.9075 151.769 95.5753V98.0779C151.769 100.793 151.181 102.973 150.036 104.544C147.615 104.213 145.582 102.591 143.93 99.6925C142.279 96.6982 141.435 93.2342 141.435 89.2345C141.435 79.87 143.343 70.0505 147.167 59.7466C147.842 57.8532 148.517 55.967 149.273 54.1617C150.102 51.9967 150.925 49.8831 151.769 47.8061C151.108 48.0483 150.389 48.3639 149.648 48.6721C149.148 48.8409 148.701 49.0537 148.282 49.2959C148.114 49.2959 147.952 49.3473 147.783 49.4133C147.71 49.4133 147.615 49.4794 147.541 49.5601L140.202 53.3984C137.964 54.6533 135.469 55.2845 132.717 55.2845C130.236 55.2845 126.537 53.8241 121.664 50.9178L121.774 50.4482ZM153.882 0.550508C157.698 0.550508 161.038 1.22572 163.841 2.53939C166.74 3.88242 168.2 5.4456 168.2 7.26566C168.2 9.2692 166.894 10.2453 164.347 10.2453C163.158 10.2453 162.138 9.96641 161.236 9.3793C161.133 9.3793 161.067 9.33527 160.993 9.26922H160.722C160.663 9.18115 160.568 9.11512 160.48 9.02705C160.392 9.02705 160.326 8.98298 160.238 8.89491H160.091L152.392 11.5003H152.26H152.143H151.644V10.8691C153.537 9.70223 155.042 8.59404 156.128 7.52255C155.959 7.36109 155.798 7.17762 155.629 7.01616L155.497 6.89141L150.396 4.03656C149.897 3.78703 149.281 3.40542 148.517 2.89903C149.684 1.34317 151.475 0.550508 153.882 0.550508ZM157.119 72.465C156.032 72.7146 155.196 72.8466 154.623 72.8466C154.293 72.8466 153.838 72.8099 153.244 72.7145C152.913 72.6265 152.642 72.5824 152.385 72.5824L152.253 79.7966C154.337 77.3968 155.959 74.9603 157.119 72.465ZM161.089 63.8857C162.175 63.8857 164.039 64.7444 166.696 66.4911V63.2693C166.696 59.3576 165.837 57.4055 164.091 57.4055C163.76 57.4055 163.159 57.7357 162.344 58.4183C159.863 60.4878 157.786 61.5299 156.135 61.5299C154.888 61.5299 153.882 61.4785 153.141 61.3831L152.657 67.9883C156.135 65.2582 158.953 63.8857 161.089 63.8857ZM159.372 77.9398C162.41 76.1344 164.905 74.4244 166.843 72.8466L166.696 66.8727C165.779 68.6781 165.177 69.7789 164.832 70.1091L159.482 77.1913V77.3233C159.408 77.3233 159.364 77.3674 159.364 77.4481C159.247 77.5362 159.181 77.6536 159.107 77.8297C159.034 77.9031 158.953 78.0426 158.865 78.1967C159.041 78.1086 159.188 78.0352 159.372 77.9398ZM196.052 45.098C199.464 42.845 202.04 40.8634 203.78 39.1314C205.519 37.3994 207.552 34.9042 209.871 31.6604C205.717 33.319 202.591 34.662 200.426 35.6381C198.422 36.5555 196.485 37.5976 194.577 38.7498C193.314 39.5057 192.441 39.8727 191.854 39.8727C189.777 39.8727 187.972 37.8398 186.482 33.7813C188.647 27.5579 190.107 22.5894 190.841 18.8466C191.67 15.0303 192.074 11.3461 192.074 7.77205V4.42553C192.001 3.0825 191.92 1.68074 191.861 0.183594C195.399 1.93027 197.769 3.76503 198.943 5.65114C200.176 7.48588 200.881 10.4728 201.064 14.6046C202.451 14.1276 203.985 13.5331 205.651 12.88C206.069 12.7185 206.422 12.5571 206.767 12.3883C209.262 12.8066 211.339 13.3791 212.99 14.1276C214.656 14.8762 215.485 15.6615 215.485 16.4981C215.485 17.0632 214.869 17.7237 213.621 18.4869C212.374 19.3015 210.957 19.8887 209.379 20.2189C207.801 20.6372 204.939 20.8354 200.793 20.8354H200.176L197.813 28.9303L208.146 25.958C209.064 25.6131 210.297 25.2975 211.874 24.9379C212.293 24.7764 212.704 24.6517 213.122 24.5856L214.612 24.204C220.674 24.7691 223.683 26.3176 223.683 28.8055C223.683 29.9724 222.494 31.543 220.087 33.5318C217.261 36.0344 214.238 38.9626 211.001 42.3679C213.739 42.544 215.118 43.2853 215.118 44.621C215.118 45.6998 214.575 46.5218 213.482 47.1015L205.798 51.2113C205.299 51.5416 204.433 52.4076 203.303 53.824C208.102 52.2461 211.662 51.4462 213.981 51.4462C215.316 51.4462 216.505 51.7838 217.606 52.4517C218.766 53.2076 219.324 53.9928 219.324 54.8221C219.324 55.4019 218.766 56.0917 217.606 56.9357C216.505 57.7503 214.282 59.086 210.869 60.9061C208.403 62.1537 205.981 64.0692 203.662 66.6232L203.515 66.7626C203.303 66.9314 203.2 67.0488 203.303 67.1369C203.303 67.2983 203.574 67.4231 204.161 67.5038C204.991 67.4231 205.827 67.3791 206.642 67.3791H207.53H208.403C215.023 67.3791 218.347 68.6267 218.347 71.1219C218.347 71.9439 218.032 72.5236 217.474 72.8612C216.814 73.1915 214.979 73.6833 211.999 74.3438C211.236 74.5052 210.407 74.7621 209.519 75.085L204.161 77.206L203.787 76.9565C204.029 76.795 204.249 76.5821 204.418 76.3326C205.482 75.3492 206.312 74.674 206.884 74.3438C201.248 73.3604 198.43 71.7017 198.43 69.3753C198.43 68.3038 199.193 67.0048 200.683 65.515C201.93 64.2013 203.376 62.484 205.042 60.4144C204.609 60.3263 204.213 60.2896 203.794 60.2896C202.393 60.1282 201.145 59.9227 200.066 59.6731C197.644 65.3902 196.022 69.9404 195.208 73.3603C194.364 76.9197 193.945 80.8241 193.945 85.0513C193.945 89.6895 194.995 92.838 197.072 94.4966C199.971 97.1533 203.963 98.4816 209.027 98.4816C211.764 98.4816 215.03 98.2321 218.861 97.733C222.648 97.322 225.73 96.7863 228.05 96.1112C229.716 95.6121 230.545 94.1296 230.545 91.6344C230.545 88.985 228.967 84.2954 225.811 77.5729H226.442C229.341 82.3066 231.345 85.2054 232.416 86.2915L241.23 96.1184C242.06 97.1165 242.493 98.0706 242.493 98.966C242.493 102.87 237.649 105.38 227.932 106.459L224.336 106.929C222.575 107.024 219.705 107.149 215.75 107.318C209.526 107.156 204.712 106.554 201.314 105.571C197.813 104.58 194.877 102.87 192.485 100.47C188.485 96.7349 186.496 91.3114 186.496 84.178C186.496 81.2057 186.841 77.6169 187.502 73.4851C188.265 69.0817 189.41 63.6656 190.988 57.1853C190.643 57.1853 190.188 57.2146 189.608 57.3027H189.366H189.138H188.992H188.874H188.742C187.495 57.3027 186.247 56.4367 185.014 54.6974L182.13 51.094V50.5949C186.695 49.8169 191.34 48.0116 196.052 45.098ZM200.294 91.128C200.536 90.9739 200.778 90.7977 201.057 90.6289C201.204 90.4748 201.402 90.306 201.673 90.1299C201.827 90.0492 201.989 89.939 202.158 89.7555C204.741 88.1116 206.011 86.6144 206.011 85.2934C206.011 84.9705 205.893 84.743 205.636 84.6623L202.283 82.1598H202.15V82.0644H202.033C202.033 81.969 201.974 81.9176 201.901 81.9176V81.7928C201.813 81.7928 201.732 81.7561 201.659 81.6607C201.571 81.5873 201.475 81.5359 201.387 81.5359C201.387 81.4552 201.343 81.4185 201.284 81.4185C201.284 81.3304 201.226 81.2864 201.138 81.2864L201.284 80.5378C203.934 80.2883 206.319 80.1636 208.491 80.1636C211.397 80.1636 213.841 80.7433 215.816 81.8955C217.804 83.0477 218.825 84.5009 218.825 86.2549C218.825 87.9943 217.489 88.8528 214.839 88.8528H214.707H214.575H214.458H214.326C214.238 88.8528 214.194 88.8088 214.194 88.7281H214.062H213.929H213.812H213.68C208.792 88.8088 204.147 89.851 199.765 91.8472L199.494 91.7224C199.809 91.5756 200.051 91.3775 200.294 91.128Z" fill="black"/>
<path d="M286.426 41.7957L293.405 23.6172C295.122 19.2211 296.025 15.9846 296.025 13.915C296.025 12.6821 295.122 10.7152 293.405 8.08055H293.633L293.779 7.9558H294.154L294.271 7.82371H294.403H294.535C295.02 7.82371 296.069 8.16131 297.647 8.83649L301.735 10.4437C305.889 12.183 307.958 14.2159 307.958 16.535C307.958 17.6946 307.188 19.9917 305.61 23.3823L299.144 36.952C294.829 45.8982 288.437 54.4041 279.982 62.4476C278.507 63.9374 277.127 65.0235 275.865 65.684C274.706 66.2638 272.614 67.0638 269.531 68.0472L269.143 67.5481C277.34 58.9248 283.101 50.3529 286.426 41.7957ZM292.157 50.0007C293.478 51.9235 294.367 53.817 294.763 55.7398C295.181 57.7286 295.379 60.8256 295.379 65.0675V68.1792C297.302 64.6125 298.594 62.0733 299.232 60.5761C300.047 58.6606 300.935 56.3562 301.838 53.6188C301.838 53.6922 301.882 53.773 301.984 53.8463V54.1105V54.3527H302.116V54.4775V54.6095V54.7489C302.116 55.4828 301.786 56.5177 301.096 57.8387C300.781 58.5139 300.15 60.7449 299.232 64.5612L296.869 75.5182C296.055 78.9088 295.636 81.8591 295.636 84.3397C295.636 88.1633 295.489 90.93 295.262 92.6841C294.675 96.2434 293.442 98.0342 291.519 98.0342C289.941 98.0342 288.495 96.3388 287.174 92.9482C285.758 89.6237 285.053 86.145 285.053 82.4829C285.053 78.3437 285.552 73.8597 286.543 69.0453C287.549 64.1576 289.281 57.89 291.761 50.2575L292.157 50.0007ZM324.5 21.2687C325.418 19.111 326.218 16.99 326.878 14.9204C327.553 12.6821 327.869 11.0675 327.869 10.0621C327.869 8.90254 327.282 6.78888 326.122 3.72119C328.933 4.39638 331.267 5.46053 333.087 6.96502C334.922 8.45483 335.824 10.1061 335.824 11.9335C335.824 13.9224 335.421 16.0947 334.591 18.4064C333.828 20.6595 332.111 24.6739 329.344 30.4791C333.498 29.3929 336.654 28.4902 338.804 27.7416C340.822 27.0811 343.361 26.0464 346.532 24.6299C351.676 22.4796 355.647 21.4081 358.487 21.4081C360.549 21.4081 362.545 21.9805 364.454 23.1548C365.855 24.0575 366.56 24.8281 366.56 25.5032C366.56 27.2499 362.545 28.7397 354.487 29.9653C353.254 30.2295 351.853 30.5158 350.275 30.8534C348.271 31.2643 346.187 31.756 344.037 32.3431C342.972 35.6603 342.429 38.1997 342.429 39.9243C342.429 40.6876 342.459 41.2159 342.547 41.5462L342.936 44.5331C343.009 44.8634 343.039 45.7294 343.039 47.1385V50.4997C350.018 46.3532 355.94 44.2836 360.843 44.2836C362.509 44.2836 363.999 44.6139 365.327 45.2671C366.729 46.0156 367.433 46.8083 367.433 47.6449C367.433 48.5403 366.2 49.6337 363.705 50.874C353.841 55.9966 348.895 60.3706 348.895 63.9226C348.895 67.6728 352.205 69.6104 358.839 69.7719C363.067 69.8673 366.795 70.447 370.031 71.5185C373.202 72.6707 374.765 73.9771 374.765 75.3715C374.765 76.6265 373.891 77.5218 372.159 78.1162C371.903 78.1969 371.073 78.3144 369.664 78.4832C367.918 78.8134 366.149 79.0996 364.314 79.3492C363.499 79.4446 362.648 79.54 361.834 79.7308C360.887 79.8115 360.028 79.9363 359.199 80.1124C356.645 80.4353 352.645 82.0499 347.273 84.9488L347.031 84.325C351.405 81.5069 354.524 79.2244 356.351 77.4851C352.381 76.142 349.644 74.7917 348.154 73.3753C346.664 72.0469 345.93 70.3149 345.93 68.1646C345.93 65.251 347.031 60.5615 349.269 54.0958C347.031 54.6756 344.925 54.9618 342.936 54.9618H342.437C342.004 60.1798 341.762 64.2089 341.688 67.0417C341.505 69.9479 341.431 72.5533 341.431 74.8651C341.431 76.1935 341.475 77.0961 341.549 77.6098L342.165 96.8746V100.493C342.165 102.65 341.894 104.514 341.306 106.107C340.646 107.67 339.89 108.463 339.068 108.463C338.665 108.463 337.446 107.178 335.472 104.595C332.147 100.617 330.481 96.4489 330.481 92.0308C330.481 91.4658 330.526 90.9153 330.599 90.4016L332.735 76.12L333.711 60.3192C333.879 56.7598 334.298 53.1051 334.958 49.3622C335.545 45.9642 336.639 40.9738 338.195 34.4348C333.637 36.6805 330.269 38.5079 328.118 39.9096C325.88 41.4068 323.605 43.2342 321.278 45.3845C319.458 47.2119 317.954 48.1146 316.794 48.1146C313.815 48.1146 312.024 45.1422 311.459 39.1536C317.66 32.8788 322.02 26.8903 324.5 21.2687Z" fill="black"/>
</svg>
