<svg width="29" height="49" viewBox="0 0 29 49" fill="none" xmlns="http://www.w3.org/2000/svg">
<path d="M14.5002 0C10.5039 0.000533246 6.88776 1.68093 4.25643 4.40555C1.62705 7.1319 0.000519949 10.8865 0 15.0381V33.9619C0.000389961 38.1138 1.62705 41.8684 4.2563 44.5945C6.88776 47.3191 10.5039 48.9993 14.5001 49C18.4964 48.9993 22.1124 47.3192 24.7437 44.5946C27.373 41.8684 28.9995 38.1138 29 33.9619V15.0382C28.9995 10.8865 27.3728 7.1319 24.7438 4.40582C22.1125 1.68106 18.4964 0.000666558 14.5002 0ZM28.1674 24.7564V33.9619V35.4865H28.0865C27.7342 38.873 26.2241 41.9085 23.975 44.1509C21.5213 46.5995 18.1753 48.1127 14.5002 48.1125C10.8251 48.1127 7.47907 46.5995 5.02556 44.1511C2.77652 41.9085 1.26633 38.873 0.914198 35.4865H0.833218V33.9619V24.7564V15.0382V15.0379C0.833088 11.1413 2.36472 7.60009 4.83617 5.04038C7.30632 2.47933 10.7299 0.887588 14.5002 0.887721C18.2703 0.887588 21.6941 2.47919 24.1641 5.04024C26.6359 7.60009 28.1676 11.1412 28.1674 15.0382V24.7564Z" fill="white"/>
<path d="M14.8534 21.767C14.8999 21.6923 14.9362 21.6068 14.961 21.5131C14.986 21.4189 14.9998 21.3166 15 21.2025V15.7979C14.9998 15.6837 14.9859 15.5813 14.961 15.4872C14.9362 15.3935 14.8999 15.308 14.8534 15.2332C14.8065 15.1593 14.753 15.1016 14.6944 15.0621C14.6355 15.0225 14.5715 15.0004 14.5001 15C14.4286 15.0003 14.3645 15.0225 14.3056 15.0621C14.2468 15.1017 14.1932 15.1595 14.1464 15.2336C14.1 15.3083 14.0638 15.3936 14.039 15.4872C14.014 15.5813 14.0002 15.6837 14 15.7978V21.2021C14.0002 21.3163 14.0141 21.4187 14.039 21.5128C14.0638 21.6064 14.1 21.6917 14.1464 21.7664C14.1933 21.8405 14.2468 21.8983 14.3056 21.9379C14.3645 21.9775 14.4285 21.9996 14.4999 22C14.5714 21.9996 14.6355 21.9775 14.6944 21.9379C14.753 21.8986 14.8065 21.841 14.8534 21.767Z" fill="white"/>
</svg>
