<svg width="14" height="14" viewBox="0 0 14 14" fill="none" xmlns="http://www.w3.org/2000/svg">
<path d="M6.98535 0.264038C8.70926 0.264038 10.3626 0.948858 11.5815 2.16784C12.8005 3.38683 13.4854 5.04013 13.4854 6.76404C13.4854 8.48794 12.8005 10.1412 11.5815 11.3602C10.3626 12.5792 8.70926 13.264 6.98535 13.264C5.26145 13.264 3.60814 12.5792 2.38916 11.3602C1.17017 10.1412 0.485352 8.48794 0.485352 6.76404C0.485352 5.04013 1.17017 3.38683 2.38916 2.16784C3.60814 0.948858 5.26145 0.264038 6.98535 0.264038ZM7.96028 4.25475C8.4431 4.25475 8.83493 3.91956 8.83493 3.42281C8.83493 2.92606 8.44218 2.59087 7.96028 2.59087C7.47746 2.59087 7.08749 2.92606 7.08749 3.42281C7.08749 3.91956 7.47746 4.25475 7.96028 4.25475ZM8.1302 9.47945C8.1302 9.3801 8.16455 9.12198 8.14505 8.97527L7.38182 9.85364C7.22398 10.0198 7.02621 10.135 6.93336 10.1043C6.89123 10.0888 6.85602 10.0588 6.83406 10.0197C6.8121 9.98051 6.80484 9.93481 6.81358 9.89078L8.08563 5.87221C8.18962 5.36246 7.90364 4.89728 7.29733 4.83785C6.65759 4.83785 5.71609 5.48688 5.1432 6.31046C5.1432 6.40888 5.12463 6.65401 5.14413 6.80071L5.90643 5.92142C6.06427 5.75707 6.24812 5.64101 6.34097 5.67258C6.38671 5.689 6.4242 5.7227 6.44538 5.76644C6.46656 5.81019 6.46974 5.8605 6.45425 5.90656L5.19334 9.90563C5.04756 10.3736 5.32333 10.8323 5.99185 10.9363C6.97607 10.9363 7.55638 10.303 8.1302 9.47945Z" fill="black"/>
</svg>
