<svg width="28" height="21" viewBox="0 0 28 21" fill="transparent" xmlns="http://www.w3.org/2000/svg">
    <path d="M17.3562 4.91919H25.622C26.0754 5.06566 26.4428 5.43297 26.4428 5.88646V7.52818C26.4428 7.98167 26.0754 8.34911 25.622 8.55406H20.9907" stroke="white" stroke-width="1.4" stroke-miterlimit="10" stroke-linecap="round" stroke-linejoin="round"/>
    <path d="M5.54324 8.55382H1.82079C1.36744 8.34886 1 7.98142 1 7.52793V5.88621C1 5.43286 1.36744 5.06542 1.82079 4.91895H8.26933" stroke="white" stroke-width="1.4" stroke-miterlimit="10" stroke-linecap="round" stroke-linejoin="round"/>
    <path d="M24.6257 8.55396L22.8081 17.6407C22.6849 18.441 21.801 19.458 20.9908 19.458H6.45212C5.64205 19.458 4.75804 18.441 4.63468 17.6407L2.81738 8.55396" stroke="white" stroke-width="1.4" stroke-miterlimit="10" stroke-linecap="round" stroke-linejoin="round"/>
    <path d="M9.17773 12.1887V15.8235" stroke="white" stroke-width="1.4" stroke-miterlimit="10" stroke-linecap="round" stroke-linejoin="round"/>
    <path d="M13.7209 12.1887V15.8235" stroke="white" stroke-width="1.4" stroke-miterlimit="10" stroke-linecap="round" stroke-linejoin="round"/>
    <path d="M18.2646 12.1887V15.8235" stroke="white" stroke-width="1.4" stroke-miterlimit="10" stroke-linecap="round" stroke-linejoin="round"/>
    <path d="M13.7213 6.73646L11 1" stroke="white" stroke-width="1.4" stroke-miterlimit="10" stroke-linecap="round" stroke-linejoin="round"/>
</svg>