<svg width="118" height="129" viewBox="0 0 118 129" fill="none" xmlns="http://www.w3.org/2000/svg">
<path d="M100.689 99.7887L100.066 100.657C103.609 105.191 107.148 109.967 105.688 112.357C104.227 114.743 88.8263 121.676 80.9021 121.676C70.0705 121.676 59.3134 117.975 58.8223 104.332C58.1952 87.2206 64.6459 76.8187 64.6459 76.8187C70.0705 73.9989 95.2552 58.7381 94.0229 50.1518C91.5277 32.5887 69.5706 52.4277 66.9438 49.2879C65.6589 47.7618 67.8428 43.4203 70.702 39.0438C71.1098 39.6008 72.2325 41.7978 72.5394 42.2407C72.8201 42.6486 72.9122 42.7231 73.0437 42.3898C73.1928 42.039 73.8419 40.1752 74.0567 39.6973C74.1839 39.3859 74.3637 39.3157 74.5523 39.5306C74.9031 39.956 75.6881 41.0479 76.0652 41.3637C76.3371 41.5961 76.4292 41.6312 76.4292 41.276C76.4292 40.9339 76.4292 38.6404 76.3941 38.1931C76.3721 37.702 76.5476 37.4169 76.8414 37.6274C77.1133 37.8291 78.7139 39.1316 78.7139 39.1316C78.9112 39.2237 78.9814 39.1929 79.0165 38.7939C79.0603 38.3992 79.3848 34.2332 79.4594 33.2684C79.5032 32.7861 79.4506 32.4133 79.9023 32.8518C80.3452 33.2991 81.5117 35.255 81.7529 35.733C81.8231 35.8821 81.9765 35.9654 82.0686 35.904C82.1914 35.8294 82.0379 35.2901 82.016 34.8647C82.016 34.8647 81.0162 28.1333 81.8406 27.0019C82.6694 25.8705 95.3648 12.9821 95.7726 12.241C96.1673 11.4955 94.8166 10.5264 93.8387 9.89929C92.8345 9.25026 92.6898 7.2155 92.6898 7.2155C91.304 5.89553 89.9271 3.488 88.3089 6.0797C87.2871 7.72418 79.5076 16.9114 74.8592 19.0119C72.1579 20.231 68.3734 22.5771 65.1151 24.6163C60.7956 23.9848 47.7889 22.0772 45.9515 21.7308C43.7237 21.3054 43.7369 23.1911 45.6357 23.5156C47.0609 23.7831 56.4411 26.0108 61.0675 27.1291C60.4448 27.5018 59.8923 27.8307 59.4801 28.05C56.6472 29.5497 21.3588 41.3768 18.4645 42.0434C15.5571 42.7187 15.7281 44.486 18.8066 44.1439C21.9026 43.7975 55.7964 33.5754 59.1205 32.5712C59.8133 32.3519 59.6204 32.6633 59.2169 32.8738C59.2169 32.8738 55.6912 35.6891 55.4017 35.8514C55.1342 36.0355 55.1167 36.2724 55.5158 36.1583C55.9236 36.0531 58.1557 35.3646 58.4758 35.2857C58.8047 35.1936 58.831 35.4085 58.6425 35.6102C58.4846 35.7637 56.3007 38.2633 56.042 38.5045C55.8271 38.7369 55.7745 38.9386 56.2393 38.829C56.6121 38.7457 60.5632 36.5442 61.7692 36.2899C58.9187 41.7759 54.7352 52.6294 59.6555 57.7339C65.694 64.0224 76.3195 49.2791 80.9021 54.6905C85.476 60.1151 63.1988 66.6185 60.6948 70.5258C58.1996 74.4199 52.0426 93.0836 54.0292 106.489C54.8624 112.12 56.1209 128.39 80.6829 128.39C105.271 128.39 117.138 116.47 117.138 111.905C117.142 107.366 102.149 103.047 100.689 99.7887Z" fill="white"/>
<path d="M27.1004 44.6443C17.8474 50.4022 18.7639 61.5101 23.4387 61.3347C25.9865 61.2426 29.9026 56.8836 29.4246 53.086C28.9685 49.3059 29.2009 45.2846 31.0427 43.9514L28.9685 43.7234L27.1004 44.6443Z" fill="white"/>
<path d="M38.5055 63.6018C39.0976 63.5053 39.6896 63.4176 40.264 63.3474C54.5337 61.5626 52.2315 58.2123 50.3896 57.0984C49.0302 56.274 36.6637 59.9313 27.766 63.001C32.3179 58.2123 48.5566 49.832 50.3151 49.1655C52.2183 48.42 51.0825 43.5435 48.4119 42.4384C45.7544 41.329 34.9228 45.5739 31.1339 51.2704L31.226 52.1913C31.226 52.1913 39.1984 48.9594 39.387 50.4416C39.5712 51.8537 32.1907 55.761 26.3013 63.5054C23.7622 64.3956 21.6047 65.2024 20.2189 65.8032C13.9962 68.4651 0.862305 72.0479 0.862305 72.0479C0.862305 72.0479 5.70365 77.3979 7.32182 75.8323C8.65056 74.5562 20.3286 68.1844 32.3618 64.9481C24.4113 71.1883 15.2197 90.1196 13.0841 103.482C11.4703 113.541 6.63772 117.523 7.32621 119.071C8.0147 120.632 15.6232 129.995 17.4562 128C19.3112 125.991 18.3771 119.518 17.693 114.401C17.3904 112.05 17.3685 104.218 19.6401 94.8688C47.1577 58.0851 43.496 92.7683 43.496 97.6667C43.496 107.941 40.0404 117.721 35.6639 120.413C35.0017 120.825 34.0633 121.005 33.0327 121.071C31.8443 121.014 25.3146 120.093 25.3146 121.873C25.3146 123.706 27.7134 122.312 30.0332 124.952C32.0416 127.241 31.9189 127.478 32.1644 128.508C32.3618 129.355 34.971 129.035 36.6725 128.109C40.6368 126.491 48.7759 118.628 48.7759 101.026C48.7759 80.722 47.6225 73.3722 41.1806 73.3722C36.0103 73.3722 26.56 81.1254 22.4203 86.0106C25.5295 78.0557 30.5506 69.8903 38.5055 63.6018Z" fill="white"/>
<path d="M21.8244 98.1314C22.0129 99.8329 24.1486 100.175 26.4903 99.5961C28.832 99.026 33.9628 96.3247 32.7963 95.3029C31.6255 94.2987 29.2969 92.7112 26.7183 93.2769C24.1529 93.8338 21.7147 97 21.8244 98.1314Z" fill="white"/>
<path d="M19.2588 108.151C20.0306 106.814 38.3918 99.8892 38.2865 101.24C38.1725 102.595 27.8934 110.624 26.1393 111.414C24.3852 112.203 17.7327 110.738 19.2588 108.151Z" fill="white"/>
<path d="M66.9407 79.4013C66.5329 81.5369 73.8213 83.962 77.1453 83.0937C80.4737 82.2298 85.4773 78.1032 84.6485 74.8669C83.8153 71.6086 79.8466 74.6389 77.3646 75.5072C74.8649 76.3886 67.3617 77.2393 66.9407 79.4013Z" fill="white"/>
<path d="M63.625 91.7591C65.4888 91.7591 74.2286 88.0842 77.5658 88.0842C80.9074 88.0842 81.5301 88.7333 81.324 90.2506C81.1091 91.7591 77.3729 95.8681 74.4391 96.0961C71.5361 96.3198 61.3227 95.8681 61.1166 94.1447C60.9105 92.4169 63.625 91.7591 63.625 91.7591Z" fill="white"/>
<path d="M63.8228 102.17C66.5242 102.17 80.0659 98.2715 81.1052 97.8286C82.1533 97.4032 82.5655 97.6269 82.3638 99.1442C82.1533 100.657 73.3915 107.586 70.2692 108.244C67.1469 108.888 62.5774 104.775 62.1476 104.13C61.7486 103.481 61.7486 102.17 63.8228 102.17Z" fill="white"/>
<path d="M36.8138 25.827C39.8396 24.8184 47.2815 27.5373 47.1499 29.5589C47.0315 31.5673 45.5449 32.5058 43.8609 32.747C42.177 33.0013 38.2566 31.2691 36.7831 28.7827C35.3053 26.2787 36.3797 25.9761 36.8138 25.827Z" fill="#221814"/>
<path d="M75.1096 25.0809C75.2105 26.0807 74.1975 26.9753 72.8731 27.0674C71.5488 27.1639 70.4086 26.4272 70.3077 25.4273C70.2069 24.4275 71.2155 23.5241 72.5311 23.4276C73.8554 23.3399 75.0175 24.0766 75.1096 25.0809Z" fill="#CF1233"/>
<path d="M87.4858 4.50142C83.6136 0.651147 80.4474 0.620444 77.0138 1.40541C73.5669 2.1816 63.2791 6.79931 54.1401 16.4952" stroke="white" stroke-width="0.484" stroke-miterlimit="10" stroke-linecap="round"/>
</svg>
